<svg id="gm-icon-output" xmlns="http://www.w3.org/2000/svg" viewBox="0 0 253.3 163.1"><style>.gm-icon-output-st0{fill:#e8eef1}.gm-icon-output-st1{fill:#fff}.gm-icon-output-st2{fill:#9fd3f2;stroke:#faa934;stroke-width:2;stroke-miterlimit:10}.gm-icon-output-st3{fill:#8bc9ed}.gm-icon-output-st4{fill:#fbb147}.gm-icon-output-st5{fill:#faa934}.gm-icon-output-st6{fill:#104470}.gm-icon-output-st7{fill:none;stroke:#8bc9ed;stroke-width:2;stroke-linecap:round;stroke-miterlimit:10}.gm-icon-output-st8{fill:#094b7c}.gm-icon-output-st9{fill:none;stroke:#8bc9ed;stroke-width:2;stroke-miterlimit:10}.gm-icon-output-st10{opacity:.6;fill:#9bbfd0;enable-background:new}.gm-icon-output-st13{fill:#0f4470}</style><ellipse class="gm-icon-output-st0" cx="128.2" cy="93.9" rx="70.1" ry="67.4"></ellipse><path class="gm-icon-output-st0" d="M78.1 140.1H35c-4.7 0-8.5-3.8-8.5-8.5v-6.1c0-4.7 3.8-8.5 8.5-8.5h43.1c4.7 0 8.5 3.8 8.5 8.5v6.1c0 4.7-3.8 8.5-8.5 8.5zM85.6 93.9H44.1c-4.7 0-8.5-3.8-8.5-8.5v-6.1c0-4.7 3.8-8.5 8.5-8.5h41.6c4.7 0 8.5 3.8 8.5 8.5v6.1c-.1 4.7-3.9 8.5-8.6 8.5z"></path><path class="gm-icon-output-st1" d="M93.1 117H45c-4.7 0-8.5-3.8-8.5-8.5v-6.1c0-4.7 3.8-8.5 8.5-8.5h48.1c4.7 0 8.5 3.8 8.5 8.5v6.1c0 4.7-3.8 8.5-8.5 8.5zM69.1 70.8H21c-4.7 0-8.5-3.8-8.5-8.5v-6.1c0-4.7 3.8-8.5 8.5-8.5h48.1c4.7 0 8.5 3.8 8.5 8.5v6.1c0 4.7-3.8 8.5-8.5 8.5z"></path><path class="gm-icon-output-st0" d="M168.7 47.7h47.1c4.7 0 8.5 3.8 8.5 8.5v6.1c0 4.7-3.8 8.5-8.5 8.5h-47.1c-4.7 0-8.5-3.8-8.5-8.5v-6.1c0-4.7 3.8-8.5 8.5-8.5zM159.7 93.9h43.1c4.7 0 8.5 3.8 8.5 8.5v6.1c0 4.7-3.8 8.5-8.5 8.5h-43.1c-4.7 0-8.5-3.8-8.5-8.5v-6.1c0-4.7 3.8-8.5 8.5-8.5z"></path><path class="gm-icon-output-st1" d="M184.7 70.8h39.6c4.7 0 8.5 3.8 8.5 8.5v6.1c0 4.7-3.8 8.5-8.5 8.5h-39.6c-4.7 0-8.5-3.8-8.5-8.5v-6.1c0-4.7 3.8-8.5 8.5-8.5z"></path><path class="gm-icon-output-st0" d="M244.8 117h-15c-4.7 0-8.5-3.8-8.5-8.5v-6.1c0-4.7 3.8-8.5 8.5-8.5h15c4.7 0 8.5 3.8 8.5 8.5v6.1c0 4.7-3.8 8.5-8.5 8.5zM16 70.8h-4C5.5 70.7.2 75.9 0 82.4.2 88.9 5.5 94 12 93.9h4c6.5.1 11.9-5.1 12-11.6-.1-6.4-5.5-11.6-12-11.5z"></path><path class="gm-icon-output-st1" d="M150.2 47.7h19c4.7 0 8.5 3.8 8.5 8.5v6.1c0 4.7-3.8 8.5-8.5 8.5h-19c-4.7 0-8.5-3.8-8.5-8.5v-6.1c0-4.7 3.8-8.5 8.5-8.5zM116.6 70.8h19c4.7 0 8.5 3.8 8.5 8.5v6.1c0 4.7-3.8 8.5-8.5 8.5h-19c-4.7 0-8.5-3.8-8.5-8.5v-6.1c0-4.7 3.8-8.5 8.5-8.5zM158.7 117h40.6c4.7 0 8.5 3.8 8.5 8.5v6.1c0 4.7-3.8 8.5-8.5 8.5h-40.6c-4.7 0-8.5-3.8-8.5-8.5v-6.1c0-4.7 3.8-8.5 8.5-8.5z"></path><ellipse class="gm-icon-output-st2" cx="237.9" cy="117.5" rx="2.5" ry="2.4"></ellipse><path class="gm-icon-output-st3" d="M178.3 31l1.2 3.8 3.9 1.2-3.9 1.1-1.2 3.8-1.2-3.8-4-1.1 4-1.2z"></path><path class="gm-icon-output-st4" d="M122.2 153.2l1.2 3.8 4 1.1-4 1.2-1.2 3.8-1.2-3.8-3.9-1.2 3.9-1.1z"></path><path class="gm-icon-output-st5" d="M197.3 82l1.2 3.8 4 1.1-4 1.2-1.2 3.8-1.2-3.8-3.9-1.2 3.9-1.1z"></path><path class="gm-icon-output-st6" d="M189.1 120c-.6 0-1-.4-1-1v-3.8c0-.6.4-1 1-1s1 .4 1 1v3.8c0 .6-.5 1-1 1zM189.1 131.5c-.6 0-1-.4-1-1v-3.8c0-.6.4-1 1-1s1 .4 1 1v3.8c0 .5-.5 1-1 1zM197.1 123.8h-4c-.5.1-1.1-.2-1.2-.7-.1-.5.2-1.1.7-1.2h4.5c.5-.1 1.1.2 1.2.7.1.5-.2 1.1-.7 1.2h-.5zM185.1 123.8h-4c-.5.1-1.1-.2-1.2-.7-.1-.5.2-1.1.7-1.2h4.5c.5-.1 1.1.2 1.2.7.1.5-.2 1.1-.7 1.2h-.5z"></path><ellipse class="gm-icon-output-st6" cx="189.1" cy="122.8" rx="1" ry="1"></ellipse><path class="gm-icon-output-st7" d="M86.9 24.7v3.8M86.9 36.2v3.9M94.9 32.4h-4M82.9 32.4h-4"></path><ellipse class="gm-icon-output-st3" cx="86.9" cy="32.4" rx="1" ry="1"></ellipse><path class="gm-icon-output-st8" d="M164.5 148.1c.7 0 1.2-.5 1.2-1.2s-.5-1.2-1.2-1.2-1.2.5-1.2 1.2.6 1.2 1.2 1.2zM203.1 99.5v-.2c0-.3-.3-.6-.6-.6s-.6.3-.6.6v.2c0 .3.3.6.6.6.4 0 .6-.3.6-.6zM207.5 103.3c-.2-.1-.5 0-.6.2-.1.2-.1.4.1.5.4.5 1.1-.4.5-.7z"></path><path class="gm-icon-output-st5" d="M36.4 112c.9-.1 1.5-.8 1.5-1.7-.1-.8-.7-1.4-1.5-1.5-.9.1-1.5.8-1.5 1.7.1.8.7 1.4 1.5 1.5z"></path><path class="gm-icon-output-st8" d="M63.2 83.2c-.9-.4-1.8-.1-2.2.7-.2.4-.2.9 0 1.4v.1c.4.8 1.4 1 2.2.6.8-.4 1-1.4.6-2.2-.2-.2-.3-.4-.6-.6z"></path><path class="gm-icon-output-st3" d="M65.8 62.5c-.2.7-.6 1.4-1.3 1.8-.7.5-1.7.8-2.6.6-.9-.1-1.7-.6-2.3-1.3-.6-.7-.8-1.6-.7-2.5.1-.9.6-1.7 1.3-2.2.7-.6 1.7-.8 2.6-.7 1.9.2 3.2 1.9 3 3.7.1.4.1.5 0 .6zM61 61.3v.2c0 .4.1.8.3 1.1.2.3.6.5 1 .5.4.1.8-.1 1.1-.3.3-.2.5-.6.6-1 .1-.8-.5-1.5-1.3-1.6-.8-.1-1.5.4-1.7 1.1z"></path><ellipse class="gm-icon-output-st9" cx="201.2" cy="60.7" rx="2.5" ry="2.4"></ellipse><path class="gm-icon-output-st7" d="M53.9 115.1v3.9M53.9 126.7v3.8M61.9 122.8h-4M49.9 122.8h-4"></path><ellipse class="gm-icon-output-st4" cx="53.9" cy="122.8" rx="1" ry="1"></ellipse><path class="gm-icon-output-st6" d="M53.9 114.2c-.6 0-1 .4-1 1v1.8h2v-1.9c0-.5-.5-.9-1-.9z"></path><circle class="gm-icon-output-st2" cx="6" cy="50.2" r="2.6"></circle><path class="gm-icon-output-st3" d="M68.9 145l-1.2-4.1-4.2-1.3 4.2-1.3 1.2-4.1 1.3 4.1 4.2 1.3-4.2 1.3z"></path><path class="gm-icon-output-st4" d="M128 10.9l-1.3-4.2-4.2-1.3 4.2-1.2 1.2-4.2 1.3 4.2 4.2 1.2-4.2 1.3z"></path><path class="gm-icon-output-st5" d="M48.8 89.1l-1.3-4.2-4.1-1.2 4.1-1.3 1.3-4.2 1.3 4.2 4.2 1.3-4.2 1.2z"></path><path class="gm-icon-output-st6" d="M57.5 47.4c.6 0 1 .4 1.1 1v4.3c.1.6-.4 1.1-1 1.2-.6.1-1.1-.4-1.2-1v-4.4c0-.6.4-1 .9-1 .1-.1.2-.1.2-.1zM57.5 34.8c.6 0 1.1.5 1.1 1.1V40c-.1.6-.6 1-1.2 1-.5 0-.9-.4-1-1v-4.2c0-.6.5-1 1.1-1zM49 43.2h4.2c.6.1 1 .6 1 1.2 0 .5-.4.9-1 1H49c-.6.1-1.1-.4-1.2-1-.1-.6.4-1.1 1-1.2h.2zM61.7 43.2h4.2c.6-.1 1.1.4 1.2 1s-.4 1.1-1 1.2h-4.4c-.6-.1-1-.6-1-1.2.1-.6.5-1 1-1z"></path><circle class="gm-icon-output-st6" cx="57.5" cy="44.3" r="1.1"></circle><path class="gm-icon-output-st7" d="M169.5 136.6v-4.2M169.5 123.9v-4.2M161.1 128.2h4.2M173.7 128.2h4.2"></path><circle class="gm-icon-output-st3" cx="169.5" cy="128.2" r="1.1"></circle><path class="gm-icon-output-st8" d="M83.3 19.1c.7 0 1.2-.5 1.2-1.2s-.5-1.2-1.2-1.2-1.2.5-1.2 1.2.6 1.2 1.2 1.2zM42.7 69.9v.1c0 .3.3.5.6.5s.5-.2.5-.5v-.2c0-.3-.3-.5-.6-.5-.3.1-.5.3-.5.6zM38.1 65.7c.2.1.3.1.4 0h.1c.2-.1.3-.4.2-.6-.1-.2-.4-.3-.6-.2-.2.1-.3.4-.2.6 0 .1 0 .1.1.2z"></path><path class="gm-icon-output-st5" d="M218.5 59.3c.9-.1 1.5-.8 1.5-1.7-.1-.8-.7-1.4-1.5-1.5-.9.1-1.5.8-1.5 1.7.1.8.8 1.5 1.5 1.5z"></path><path class="gm-icon-output-st8" d="M190.3 87.5l.1.1c.8.4 1.7.1 2.1-.6.3-.5.3-1 0-1.5v-.1c-.4-.8-1.4-1-2.2-.6s-1 1.4-.6 2.2c.2.1.4.3.6.5z"></path><path class="gm-icon-output-st3" d="M187.5 110.3c.2-.8.7-1.5 1.3-2 1.6-1.2 3.9-.9 5.2.7.6.8.9 1.8.7 2.7-.3 2-2.1 3.4-4.2 3.2s-3.4-2.1-3.2-4.2c.2-.1.2-.2.2-.4zm5.1 1.3v-.2c.1-.4-.1-.8-.3-1.2-.3-.3-.6-.6-1.1-.6-.4-.1-.8.1-1.2.3-.7.5-.8 1.5-.3 2.2.5.7 1.5.8 2.2.3.4-.1.6-.4.7-.8z"></path><circle class="gm-icon-output-st9" cx="44.7" cy="112.4" r="2.6"></circle><path class="gm-icon-output-st7" d="M200.1 52.6v-4.3M200 39.9v-4.2M191.6 44.1h4.2M204.3 44.1h4.2"></path><circle class="gm-icon-output-st4" cx="200.1" cy="44.1" r="1.1"></circle><path class="gm-icon-output-st6" d="M200.1 53.6c.6 0 1-.4 1.1-.9v-2.1H199v2c0 .6.5 1 1.1 1z"></path><path class="gm-icon-output-st10" d="M120.9 56h40.8c3.4 0 6.2 2.8 6.2 6.2v6.6c0 3.4-2.8 6.2-6.2 6.2h-40.8c-3.4 0-6.2-2.8-6.2-6.2v-6.6c0-3.4 2.8-6.2 6.2-6.2z"></path><path class="gm-icon-output-st10" d="M127.9 73.9h40.8c3.4 0 6.2 2.8 6.2 6.2v40.8c0 3.4-2.8 6.2-6.2 6.2h-40.8c-3.4 0-6.2-2.8-6.2-6.2V80.1c0-3.4 2.8-6.2 6.2-6.2z"></path><path d="M95.6 57.3h59.6c2 0 3.6 1.6 3.6 3.6v19.8c0 6.6-5.4 12-12 12H95.6c-6.6 0-12-5.4-12-12V69.3c0-6.6 5.4-12 12-12z" fill="#dbdcdd" stroke="#0f4470" stroke-width="3"></path><path d="M167.1 78.8v40.8c0 3.4-2.5 6.2-5.5 6.2H89.1c-3 0-5.5-2.8-5.5-6.2V78.8c0-3.4 2.5-6.2 5.5-6.2h72.6c3 0 5.4 2.8 5.4 6.2z" fill="#f2f2f3" stroke="#0f4470" stroke-width="3"></path><path class="gm-icon-output-st1" d="M165.8 111.6H85V92.2c0-10.4.6-18.7 5.3-18.7h70.2c4.5 0 5.3 8.1 5.3 18.2v19.9z"></path><path class="gm-icon-output-st13" d="M94.3 61.1h59.1v3.5H94.3zM94.3 66h59.1v3.5H94.3z"></path><path d="M167.1 78.8v40.8c0 3.4-2.5 6.2-5.5 6.2H89.1c-3 0-5.5-2.8-5.5-6.2V78.8c0-3.4 2.5-6.2 5.5-6.2h72.6c3 0 5.4 2.8 5.4 6.2z" fill="none" stroke="#0f4470" stroke-width="3"></path><path d="M153.9 93.2h14.8v13h-14.8c-3.1 0-5.6-2.5-5.6-5.6v-1.8c0-3.1 2.5-5.6 5.6-5.6z" fill="#fcba63"></path><circle class="gm-icon-output-st13" cx="155.1" cy="99.6" r="2.8"></circle></svg>