<svg id="gm-icon-mining" xmlns="http://www.w3.org/2000/svg" viewBox="0 0 253.3 168.1"><style>.gm-icon-mining-st0{fill:#e8eef1}.gm-icon-mining-st1{fill:#fff}.gm-icon-mining-st2{fill:#9fd3f2;stroke:#faa934;stroke-width:2;stroke-miterlimit:10}.gm-icon-mining-st3{fill:#8bc9ed}.gm-icon-mining-st4{fill:#fbb147}.gm-icon-mining-st5{fill:#faa934}.gm-icon-mining-st6{fill:#104470}.gm-icon-mining-st7{fill:none;stroke:#8bc9ed;stroke-width:2;stroke-linecap:round;stroke-miterlimit:10}.gm-icon-mining-st8{fill:#094b7c}.gm-icon-mining-st9{fill:none;stroke:#8bc9ed;stroke-width:2;stroke-miterlimit:10}.gm-icon-mining-st10{opacity:.6;fill:#9bbfd0;enable-background:new}.gm-icon-mining-st11{fill:#f2f2f3}.gm-icon-mining-st12{fill:#dbdcde}.gm-icon-mining-st13{fill:#fcba63}</style><ellipse class="gm-icon-mining-st0" cx="128.2" cy="98.9" rx="70.1" ry="67.4"></ellipse><path class="gm-icon-mining-st0" d="M78.1 145.1H35c-4.7 0-8.5-3.8-8.5-8.5v-6.1c0-4.7 3.8-8.5 8.5-8.5h43.1c4.7 0 8.5 3.8 8.5 8.5v6.1c0 4.7-3.8 8.5-8.5 8.5zM85.6 98.9H44.1c-4.7 0-8.5-3.8-8.5-8.5v-6.1c0-4.7 3.8-8.5 8.5-8.5h41.6c4.7 0 8.5 3.8 8.5 8.5v6.1c-.1 4.7-3.9 8.5-8.6 8.5z"></path><path class="gm-icon-mining-st1" d="M93.1 122H45c-4.7 0-8.5-3.8-8.5-8.5v-6.1c0-4.7 3.8-8.5 8.5-8.5h48.1c4.7 0 8.5 3.8 8.5 8.5v6.1c0 4.7-3.8 8.5-8.5 8.5zM69.1 75.8H21c-4.7 0-8.5-3.8-8.5-8.5v-6.1c0-4.7 3.8-8.5 8.5-8.5h48.1c4.7 0 8.5 3.8 8.5 8.5v6.1c0 4.7-3.8 8.5-8.5 8.5z"></path><path class="gm-icon-mining-st0" d="M168.7 52.7h47.1c4.7 0 8.5 3.8 8.5 8.5v6.1c0 4.7-3.8 8.5-8.5 8.5h-47.1c-4.7 0-8.5-3.8-8.5-8.5v-6.1c0-4.7 3.8-8.5 8.5-8.5zM159.7 98.9h43.1c4.7 0 8.5 3.8 8.5 8.5v6.1c0 4.7-3.8 8.5-8.5 8.5h-43.1c-4.7 0-8.5-3.8-8.5-8.5v-6.1c0-4.7 3.8-8.5 8.5-8.5z"></path><path class="gm-icon-mining-st1" d="M184.7 75.8h39.6c4.7 0 8.5 3.8 8.5 8.5v6.1c0 4.7-3.8 8.5-8.5 8.5h-39.6c-4.7 0-8.5-3.8-8.5-8.5v-6.1c0-4.7 3.8-8.5 8.5-8.5z"></path><path class="gm-icon-mining-st0" d="M244.8 122h-15c-4.7 0-8.5-3.8-8.5-8.5v-6.1c0-4.7 3.8-8.5 8.5-8.5h15c4.7 0 8.5 3.8 8.5 8.5v6.1c0 4.7-3.8 8.5-8.5 8.5zM16 75.8h-4C5.5 75.7.2 80.9 0 87.4.2 93.9 5.5 99 12 98.9h4c6.5.1 11.9-5.1 12-11.6-.1-6.4-5.5-11.6-12-11.5z"></path><path class="gm-icon-mining-st1" d="M150.2 52.7h19c4.7 0 8.5 3.8 8.5 8.5v6.1c0 4.7-3.8 8.5-8.5 8.5h-19c-4.7 0-8.5-3.8-8.5-8.5v-6.1c0-4.7 3.8-8.5 8.5-8.5zM116.6 75.8h19c4.7 0 8.5 3.8 8.5 8.5v6.1c0 4.7-3.8 8.5-8.5 8.5h-19c-4.7 0-8.5-3.8-8.5-8.5v-6.1c0-4.7 3.8-8.5 8.5-8.5zM158.7 122h40.6c4.7 0 8.5 3.8 8.5 8.5v6.1c0 4.7-3.8 8.5-8.5 8.5h-40.6c-4.7 0-8.5-3.8-8.5-8.5v-6.1c0-4.7 3.8-8.5 8.5-8.5z"></path><ellipse class="gm-icon-mining-st2" cx="237.9" cy="122.5" rx="2.5" ry="2.4"></ellipse><path class="gm-icon-mining-st3" d="M178.3 36l1.2 3.8 3.9 1.2-3.9 1.1-1.2 3.8-1.2-3.8-4-1.1 4-1.2z"></path><path class="gm-icon-mining-st4" d="M122.2 158.2l1.2 3.8 4 1.1-4 1.2-1.2 3.8-1.2-3.8-3.9-1.2 3.9-1.1z"></path><path class="gm-icon-mining-st5" d="M197.3 87l1.2 3.8 4 1.1-4 1.2-1.2 3.8-1.2-3.8-3.9-1.2 3.9-1.1z"></path><path class="gm-icon-mining-st6" d="M189.1 125c-.6 0-1-.4-1-1v-3.8c0-.6.4-1 1-1s1 .4 1 1v3.8c0 .6-.5 1-1 1zM189.1 136.5c-.6 0-1-.4-1-1v-3.9c0-.6.4-1 1-1s1 .4 1 1v3.9c0 .5-.5 1-1 1zM197.1 128.8h-4c-.5.1-1.1-.2-1.2-.7-.1-.5.2-1.1.7-1.2h4.5c.5-.1 1.1.2 1.2.7s-.2 1.1-.7 1.2h-.5zM185.1 128.8h-4c-.5.1-1.1-.2-1.2-.7-.1-.5.2-1.1.7-1.2h4.5c.5-.1 1.1.2 1.2.7s-.2 1.1-.7 1.2h-.5z"></path><ellipse class="gm-icon-mining-st6" cx="189.1" cy="127.8" rx="1" ry="1"></ellipse><path class="gm-icon-mining-st7" d="M86.9 29.7v3.8M86.9 41.2v3.9M94.9 37.4h-4M82.9 37.4h-4"></path><ellipse class="gm-icon-mining-st3" cx="86.9" cy="37.4" rx="1" ry="1"></ellipse><path class="gm-icon-mining-st8" d="M164.5 153.1c.7 0 1.2-.5 1.2-1.2s-.5-1.2-1.2-1.2-1.2.5-1.2 1.2.6 1.2 1.2 1.2zM203.1 104.5v-.2c0-.3-.3-.6-.6-.6s-.6.3-.6.6v.2c0 .3.3.6.6.6.4 0 .6-.3.6-.6zM207.5 108.3c-.2-.1-.5 0-.6.2-.1.2-.1.4.1.5.4.5 1.1-.4.5-.7z"></path><path class="gm-icon-mining-st5" d="M36.4 117c.9-.1 1.5-.8 1.5-1.7-.1-.8-.7-1.4-1.5-1.5-.9.1-1.5.8-1.5 1.7.1.8.7 1.4 1.5 1.5z"></path><path class="gm-icon-mining-st8" d="M63.2 88.2c-.9-.4-1.8-.1-2.2.7-.2.4-.2.9 0 1.4v.1c.4.8 1.4 1 2.2.6.8-.4 1-1.4.6-2.2-.2-.2-.3-.4-.6-.6z"></path><path class="gm-icon-mining-st3" d="M65.8 67.5c-.2.7-.6 1.4-1.3 1.8-.7.5-1.7.8-2.6.6-.9-.1-1.7-.6-2.3-1.3-.6-.7-.8-1.6-.7-2.5.1-.9.6-1.7 1.3-2.2.7-.6 1.7-.8 2.6-.7 1.9.2 3.2 1.9 3 3.7.1.4.1.5 0 .6zM61 66.3v.2c0 .4.1.8.3 1.1.2.3.6.5 1 .6.4.1.8-.1 1.1-.3.3-.2.5-.6.6-1 .1-.8-.5-1.5-1.3-1.6-.8-.2-1.5.3-1.7 1z"></path><ellipse class="gm-icon-mining-st9" cx="201.2" cy="65.7" rx="2.5" ry="2.4"></ellipse><path class="gm-icon-mining-st7" d="M53.9 120.1v3.9M53.9 131.7v3.8M61.9 127.8h-4M49.9 127.8h-4"></path><ellipse class="gm-icon-mining-st4" cx="53.9" cy="127.8" rx="1" ry="1"></ellipse><path class="gm-icon-mining-st6" d="M53.9 119.2c-.6 0-1 .4-1 1v1.8h2v-1.9c0-.5-.5-.9-1-.9z"></path><circle class="gm-icon-mining-st2" cx="5" cy="50.2" r="2.6"></circle><path class="gm-icon-mining-st3" d="M67.9 145l-1.2-4.1-4.2-1.3 4.2-1.3 1.2-4.1 1.3 4.1 4.2 1.3-4.2 1.3z"></path><path class="gm-icon-mining-st4" d="M127 10.9l-1.3-4.2-4.2-1.3 4.2-1.2 1.2-4.2 1.3 4.2 4.2 1.2-4.2 1.3z"></path><path class="gm-icon-mining-st5" d="M47.8 89.1l-1.3-4.2-4.1-1.2 4.1-1.3 1.3-4.2 1.3 4.2 4.2 1.3-4.2 1.2z"></path><path class="gm-icon-mining-st6" d="M56.5 47.4c.6 0 1 .4 1.1 1v4.3c.1.6-.4 1.1-1 1.2-.6.1-1.1-.4-1.2-1v-4.4c0-.6.4-1 .9-1 .1-.1.2-.1.2-.1zM56.5 34.8c.6 0 1.1.5 1.1 1.1V40c-.1.6-.6 1-1.2 1-.5 0-.9-.4-1-1v-4.2c0-.6.5-1 1.1-1zM48 43.2h4.2c.6.1 1 .6 1 1.2 0 .5-.4.9-1 1H48c-.6.1-1.1-.4-1.2-1-.1-.6.4-1.1 1-1.2h.2zM60.7 43.2h4.2c.6-.1 1.1.4 1.2 1s-.4 1.1-1 1.2h-4.4c-.6-.1-1-.6-1-1.2.1-.6.5-1 1-1z"></path><circle class="gm-icon-mining-st6" cx="56.5" cy="44.3" r="1.1"></circle><path class="gm-icon-mining-st7" d="M168.5 136.6v-4.2M168.5 123.9v-4.2M160.1 128.2h4.2M172.7 128.2h4.2"></path><circle class="gm-icon-mining-st3" cx="168.5" cy="128.2" r="1.1"></circle><path class="gm-icon-mining-st8" d="M82.3 19.1c.7 0 1.2-.5 1.2-1.2s-.5-1.2-1.2-1.2-1.2.5-1.2 1.2.6 1.2 1.2 1.2zM41.7 69.9v.1c0 .3.3.5.6.5s.5-.2.5-.5v-.2c0-.3-.3-.5-.6-.5-.3.1-.5.3-.5.6zM37.1 65.7c.2.1.3.1.4 0h.1c.2-.1.3-.4.2-.6-.1-.2-.4-.3-.6-.2-.2.1-.3.4-.2.6 0 .1 0 .1.1.2z"></path><path class="gm-icon-mining-st5" d="M217.5 59.3c.9-.1 1.5-.8 1.5-1.7-.1-.8-.7-1.4-1.5-1.5-.9.1-1.5.8-1.5 1.7.1.8.8 1.5 1.5 1.5z"></path><path class="gm-icon-mining-st8" d="M189.3 87.5l.1.1c.8.4 1.7.1 2.1-.6.3-.5.3-1 0-1.5v-.1c-.4-.8-1.4-1-2.2-.6s-1 1.4-.6 2.2c.2.1.4.3.6.5z"></path><path class="gm-icon-mining-st3" d="M186.5 110.3c.2-.8.7-1.5 1.3-2 1.6-1.2 3.9-.9 5.2.7.6.8.9 1.8.7 2.7-.3 2-2.1 3.4-4.2 3.2s-3.4-2.1-3.2-4.2c.2-.1.2-.2.2-.4zm5.1 1.3v-.2c.1-.4-.1-.8-.3-1.2-.3-.3-.6-.6-1.1-.6-.4-.1-.8.1-1.2.3-.7.5-.8 1.5-.3 2.2.5.7 1.5.8 2.2.3.4-.1.6-.4.7-.8z"></path><circle class="gm-icon-mining-st9" cx="43.7" cy="112.4" r="2.6"></circle><path class="gm-icon-mining-st7" d="M199.1 52.6v-4.3M199 39.9v-4.2M190.6 44.1h4.2M203.3 44.1h4.2"></path><circle class="gm-icon-mining-st4" cx="199.1" cy="44.1" r="1.1"></circle><path class="gm-icon-mining-st6" d="M199.1 53.6c.6 0 1-.4 1.1-.9v-2.1H198v2c0 .6.5 1 1.1 1z"></path><path class="gm-icon-mining-st10" d="M164.2 114.6h3.1c1.1 0 2.1.9 2.1 2.1v5.8c0 1.1-.9 2.1-2.1 2.1h-3.1c-1.1 0-2.1-.9-2.1-2.1v-5.8c0-1.2 1-2.1 2.1-2.1zM164.2 85.8h3.1c1.1 0 2.1.9 2.1 2.1v5.8c0 1.1-.9 2.1-2.1 2.1h-3.1c-1.1 0-2.1-.9-2.1-2.1v-5.8c0-1.2 1-2.1 2.1-2.1z"></path><path class="gm-icon-mining-st10" d="M165.1 64.9h6.9c2.5 0 4.5 2 4.5 4.5V82c0 2.5-2 4.5-4.5 4.5h-6.9c-2.5 0-4.5-2-4.5-4.5V69.3c0-2.4 2-4.4 4.5-4.4zM165.1 94.2h6.9c2.5 0 4.5 2 4.5 4.5v12.7c0 2.5-2 4.5-4.5 4.5h-6.9c-2.5 0-4.5-2-4.5-4.5V98.7c0-2.5 2-4.5 4.5-4.5zM165.1 123.6h6.9c2.5 0 4.5 2 4.5 4.5v12.6c0 2.5-2 4.5-4.5 4.5h-6.9c-2.5 0-4.5-2-4.5-4.5V128c0-2.4 2-4.4 4.5-4.4z"></path><path class="gm-icon-mining-st1" d="M86.9 95.7H165c1.6 0 2.9 1.3 2.9 2.9v12.9c0 1.6-1.3 2.9-2.9 2.9H86.9c-1.6 0-2.9-1.3-2.9-2.9V98.6c0-1.6 1.3-2.9 2.9-2.9zM87 66.4h78.1c1.6 0 2.9 1.3 2.9 2.9v12.9c0 1.6-1.3 2.9-2.9 2.9H87c-1.6 0-2.9-1.3-2.9-2.9V69.3c0-1.6 1.3-2.9 2.9-2.9z"></path><path class="gm-icon-mining-st1" d="M95.1 84.9h62.3c1.6 0 2.9 1.3 2.9 2.9v34.6c0 1.6-1.3 2.9-2.9 2.9H95.1c-1.6 0-2.9-1.3-2.9-2.9V87.8c0-1.6 1.3-2.9 2.9-2.9z"></path><path class="gm-icon-mining-st11" d="M154 95.5h10.8c1.6 0 2.9 1.3 2.9 2.9v12.2c0 1.6-1.3 2.9-2.9 2.9H154c-1.6 0-2.9-1.3-2.9-2.9V98.4c0-1.6 1.3-2.9 2.9-2.9zM153.5 65.4h10.8c1.6 0 2.9 1.3 2.9 2.9v14.1c0 1.6-1.3 2.9-2.9 2.9h-10.8c-1.6 0-2.9-1.3-2.9-2.9V68.3c0-1.6 1.3-2.9 2.9-2.9z"></path><path class="gm-icon-mining-st1" d="M87 124.7h78.1c1.6 0 2.9 1.3 2.9 2.9v12.9c0 1.6-1.3 2.9-2.9 2.9H87c-1.6 0-2.9-1.3-2.9-2.9v-12.9c0-1.6 1.3-2.9 2.9-2.9z"></path><path class="gm-icon-mining-st11" d="M153.8 125.6h10.8c1.6 0 2.9 1.3 2.9 2.9v12c0 1.6-1.3 2.9-2.9 2.9h-10.8c-1.6 0-2.9-1.3-2.9-2.9v-12c0-1.6 1.3-2.9 2.9-2.9z"></path><path class="gm-icon-mining-st12" d="M166.4 86.5h-30.9v-3.1h30.9V68h-30.9v-3.1h30.9c1.7 0 3.1 1.4 3.1 3.1v15.4c-.1 1.7-1.4 3.1-3.1 3.1zM116.9 86.5H86.1c-1.7 0-3.1-1.4-3.1-3.1V68c0-1.7 1.4-3.1 3.1-3.1H117V68H86.1v15.4H117l-.1 3.1zM116.9 115.8H86.1c-1.7 0-3.1-1.4-3.1-3.1V97.3c0-1.7 1.4-3.1 3.1-3.1H117v3.1H86.1v15.4H117l-.1 3.1zM166.4 115.8h-30.9v-3.1h30.9V97.3h-30.9v-3.1h30.9c1.7 0 3.1 1.4 3.1 3.1v15.4c-.1 1.8-1.4 3.1-3.1 3.1z"></path><path class="gm-icon-mining-st12" d="M116.9 97.3H90.7V83.4h26.2v3.1H93.8v7.7h23.1zM161.7 97.3h-26.2v-3.1h23.1v-7.7h-23.1v-3.1h26.2zM166.4 145.2H86.1c-1.7 0-3.1-1.4-3.1-3.1v-15.4c0-1.7 1.4-3.1 3.1-3.1h80.3c1.7 0 3.1 1.4 3.1 3.1v15.4c0 1.7-1.4 3.1-3.1 3.1zm-80.3-18.5v15.4h80.3v-15.4H86.1z"></path><path class="gm-icon-mining-st12" d="M161.7 126.7h-71v-13.9h26.2v3H93.8v7.8h64.8v-7.8h-23.1v-3h26.2z"></path><path class="gm-icon-mining-st13" d="M92.2 74.2h3.1v3.1h-3.1zM101.5 74.2h3.1v3.1h-3.1zM110.8 74.2h3.1v3.1h-3.1zM92.2 103.5h3.1v3.1h-3.1zM101.5 103.5h3.1v3.1h-3.1zM110.8 103.5h3.1v3.1h-3.1zM92.2 132.8h3.1v3.1h-3.1zM101.5 132.8h3.1v3.1h-3.1zM110.8 132.8h3.1v3.1h-3.1z"></path><path d="M87.2 51.2c.7 1 1.5 2 2.4 2.8 0 .7 14.9-9.8 30.4-4.5 3.8 0-.4 4.7 3.4 4.7-.1 3.6-.4 10.5-.4 13.8s-.3 14.3-.4 17.6c-.1 3.9-.2 7.8-.3 11.8-.2 6.8-.3 13.6-.5 20.3v1c0 .9.7 1.6 1.5 1.6h6.4c.9 0 1.5-.7 1.5-1.6v-.9l-.3-20.3c0-3.9-.1-7.7-.2-11.6 0-3.2-.2-14.6-.2-17.8V54.3c1.1 0 .5-.1 1.5-.1 1-1.7-.1-3.6 1.8-4.5 3.3-1.5 9.5-1.1 15.3-.3.5-.2 16.9 4.5 16.9 4.1-20.8-15.1-35.8-11.7-35.8-11.7v-3c0-.5-.3-.8-.8-.8h-5c-.5 0-.8.4-.8.8v3c-10.5-2.5-36.4 9.4-36.4 9.4z" fill="#f1f1f1" stroke="#0f4470" stroke-width="3" stroke-miterlimit="10"></path></svg>