<svg id="gm-icon-cryptoc" xmlns="http://www.w3.org/2000/svg" viewBox="0 0 253.3 163.1"><style>.gm-icon-cryptoc-st0{fill:#e8eef1}.gm-icon-cryptoc-st1{fill:#fff}.gm-icon-cryptoc-st2{fill:#9fd3f2;stroke:#faa934;stroke-width:2;stroke-miterlimit:10}.gm-icon-cryptoc-st3{fill:#8bc9ed}.gm-icon-cryptoc-st4{fill:#fbb147}.gm-icon-cryptoc-st5{fill:#faa934}.gm-icon-cryptoc-st6{fill:#104470}.gm-icon-cryptoc-st7{fill:none;stroke:#8bc9ed;stroke-width:2;stroke-linecap:round;stroke-miterlimit:10}.gm-icon-cryptoc-st8{fill:#094b7c}.gm-icon-cryptoc-st9{fill:none;stroke:#8bc9ed;stroke-width:2;stroke-miterlimit:10}.gm-icon-cryptoc-st10{opacity:.6;fill:#9bbfd0;enable-background:new}.gm-icon-cryptoc-st12{fill:#0f4470}.gm-icon-cryptoc-st13{fill:#fcba63}</style><ellipse class="gm-icon-cryptoc-st0" cx="128.2" cy="93.9" rx="70.1" ry="67.4"></ellipse><path class="gm-icon-cryptoc-st0" d="M78.1 120.1H35c-4.7 0-8.5-3.8-8.5-8.5v-6.1c0-4.7 3.8-8.5 8.5-8.5h43.1c4.7 0 8.5 3.8 8.5 8.5v6.1c0 4.7-3.8 8.5-8.5 8.5zM85.6 93.9H44.1c-4.7 0-8.5-3.8-8.5-8.5v-6.1c0-4.7 3.8-8.5 8.5-8.5h41.6c4.7 0 8.5 3.8 8.5 8.5v6.1c-.1 4.7-3.9 8.5-8.6 8.5z"></path><path class="gm-icon-cryptoc-st1" d="M93.1 137.7H45c-4.7 0-8.5-3.8-8.5-8.5v-6.1c0-4.7 3.8-8.5 8.5-8.5h48.1c4.7 0 8.5 3.8 8.5 8.5v6.1c0 4.7-3.8 8.5-8.5 8.5zM69.1 70.8H21c-4.7 0-8.5-3.8-8.5-8.5v-6.1c0-4.7 3.8-8.5 8.5-8.5h48.1c4.7 0 8.5 3.8 8.5 8.5v6.1c0 4.7-3.8 8.5-8.5 8.5z"></path><path class="gm-icon-cryptoc-st0" d="M168.7 47.7h47.1c4.7 0 8.5 3.8 8.5 8.5v6.1c0 4.7-3.8 8.5-8.5 8.5h-47.1c-4.7 0-8.5-3.8-8.5-8.5v-6.1c0-4.7 3.8-8.5 8.5-8.5zM159.7 93.9h43.1c4.7 0 8.5 3.8 8.5 8.5v6.1c0 4.7-3.8 8.5-8.5 8.5h-43.1c-4.7 0-8.5-3.8-8.5-8.5v-6.1c0-4.7 3.8-8.5 8.5-8.5z"></path><path class="gm-icon-cryptoc-st1" d="M184.7 70.8h39.6c4.7 0 8.5 3.8 8.5 8.5v6.1c0 4.7-3.8 8.5-8.5 8.5h-39.6c-4.7 0-8.5-3.8-8.5-8.5v-6.1c0-4.7 3.8-8.5 8.5-8.5z"></path><path class="gm-icon-cryptoc-st0" d="M244.8 117h-15c-4.7 0-8.5-3.8-8.5-8.5v-6.1c0-4.7 3.8-8.5 8.5-8.5h15c4.7 0 8.5 3.8 8.5 8.5v6.1c0 4.7-3.8 8.5-8.5 8.5zM16 70.8h-4C5.5 70.7.2 75.9 0 82.4.2 88.9 5.5 94 12 93.9h4c6.5.1 11.9-5.1 12-11.6-.1-6.4-5.5-11.6-12-11.5z"></path><path class="gm-icon-cryptoc-st1" d="M150.2 44.7h19c4.7 0 8.5 3.8 8.5 8.5v6.1c0 4.7-3.8 8.5-8.5 8.5h-19c-4.7 0-8.5-3.8-8.5-8.5v-6.1c0-4.7 3.8-8.5 8.5-8.5zM126.6 68.8h19c4.7 0 8.5 3.8 8.5 8.5v6.1c0 4.7-3.8 8.5-8.5 8.5h-19c-4.7 0-8.5-3.8-8.5-8.5v-6.1c0-4.7 3.8-8.5 8.5-8.5zM158.7 117h40.6c4.7 0 8.5 3.8 8.5 8.5v6.1c0 4.7-3.8 8.5-8.5 8.5h-40.6c-4.7 0-8.5-3.8-8.5-8.5v-6.1c0-4.7 3.8-8.5 8.5-8.5z"></path><ellipse class="gm-icon-cryptoc-st2" cx="237.9" cy="117.5" rx="2.5" ry="2.4"></ellipse><path class="gm-icon-cryptoc-st3" d="M178.3 31l1.2 3.8 3.9 1.2-3.9 1.1-1.2 3.8-1.2-3.8-4-1.1 4-1.2z"></path><path class="gm-icon-cryptoc-st4" d="M122.2 153.2l1.2 3.8 4 1.1-4 1.2-1.2 3.8-1.2-3.8-3.9-1.2 3.9-1.1z"></path><path class="gm-icon-cryptoc-st5" d="M197.3 82l1.2 3.8 4 1.1-4 1.2-1.2 3.8-1.2-3.8-3.9-1.2 3.9-1.1z"></path><path class="gm-icon-cryptoc-st6" d="M189.1 120c-.6 0-1-.4-1-1v-3.8c0-.6.4-1 1-1s1 .4 1 1v3.8c0 .6-.5 1-1 1zM189.1 131.5c-.6 0-1-.4-1-1v-3.8c0-.6.4-1 1-1s1 .4 1 1v3.8c0 .5-.5 1-1 1zM197.1 123.8h-4c-.5.1-1.1-.2-1.2-.7-.1-.5.2-1.1.7-1.2h4.5c.5-.1 1.1.2 1.2.7.1.5-.2 1.1-.7 1.2h-.5zM185.1 123.8h-4c-.5.1-1.1-.2-1.2-.7-.1-.5.2-1.1.7-1.2h4.5c.5-.1 1.1.2 1.2.7.1.5-.2 1.1-.7 1.2h-.5z"></path><ellipse class="gm-icon-cryptoc-st6" cx="189.1" cy="122.8" rx="1" ry="1"></ellipse><path class="gm-icon-cryptoc-st7" d="M86.9 24.7v3.8M86.9 36.2v3.9M94.9 32.4h-4M82.9 32.4h-4"></path><ellipse class="gm-icon-cryptoc-st3" cx="86.9" cy="32.4" rx="1" ry="1"></ellipse><path class="gm-icon-cryptoc-st8" d="M164.5 148.1c.7 0 1.2-.5 1.2-1.2s-.5-1.2-1.2-1.2-1.2.5-1.2 1.2.6 1.2 1.2 1.2zM203.1 99.5v-.2c0-.3-.3-.6-.6-.6s-.6.3-.6.6v.2c0 .3.3.6.6.6.4 0 .6-.3.6-.6zM207.5 103.3c-.2-.1-.5 0-.6.2-.1.2-.1.4.1.5.4.5 1.1-.4.5-.7z"></path><path class="gm-icon-cryptoc-st5" d="M36.4 112c.9-.1 1.5-.8 1.5-1.7-.1-.8-.7-1.4-1.5-1.5-.9.1-1.5.8-1.5 1.7.1.8.7 1.4 1.5 1.5z"></path><path class="gm-icon-cryptoc-st8" d="M63.2 83.2c-.9-.4-1.8-.1-2.2.7-.2.4-.2.9 0 1.4v.1c.4.8 1.4 1 2.2.6.8-.4 1-1.4.6-2.2-.2-.2-.3-.4-.6-.6z"></path><path class="gm-icon-cryptoc-st3" d="M65.8 62.5c-.2.7-.6 1.4-1.3 1.8-.7.5-1.7.8-2.6.6-.9-.1-1.7-.6-2.3-1.3-.6-.7-.8-1.6-.7-2.5.1-.9.6-1.7 1.3-2.2.7-.6 1.7-.8 2.6-.7 1.9.2 3.2 1.9 3 3.7.1.4.1.5 0 .6zM61 61.3v.2c0 .4.1.8.3 1.1.2.3.6.5 1 .5.4.1.8-.1 1.1-.3.3-.2.5-.6.6-1 .1-.8-.5-1.5-1.3-1.6-.8-.1-1.5.4-1.7 1.1z"></path><ellipse class="gm-icon-cryptoc-st9" cx="201.2" cy="60.7" rx="2.5" ry="2.4"></ellipse><path class="gm-icon-cryptoc-st7" d="M53.9 115.1v3.9M53.9 126.7v3.8M61.9 122.8h-4M49.9 122.8h-4"></path><ellipse class="gm-icon-cryptoc-st4" cx="53.9" cy="122.8" rx="1" ry="1"></ellipse><path class="gm-icon-cryptoc-st6" d="M53.9 114.2c-.6 0-1 .4-1 1v1.8h2v-1.9c0-.5-.5-.9-1-.9z"></path><circle class="gm-icon-cryptoc-st2" cx="6" cy="50.2" r="2.6"></circle><path class="gm-icon-cryptoc-st3" d="M68.9 145l-1.2-4.1-4.2-1.3 4.2-1.3 1.2-4.1 1.3 4.1 4.2 1.3-4.2 1.3z"></path><path class="gm-icon-cryptoc-st4" d="M128 10.9l-1.3-4.2-4.2-1.3 4.2-1.2 1.2-4.2 1.3 4.2 4.2 1.2-4.2 1.3z"></path><path class="gm-icon-cryptoc-st5" d="M48.8 89.1l-1.3-4.2-4.1-1.2 4.1-1.3 1.3-4.2 1.3 4.2 4.2 1.3-4.2 1.2z"></path><path class="gm-icon-cryptoc-st6" d="M57.5 47.4c.6 0 1 .4 1.1 1v4.3c.1.6-.4 1.1-1 1.2-.6.1-1.1-.4-1.2-1v-4.4c0-.6.4-1 .9-1 .1-.1.2-.1.2-.1zM57.5 34.8c.6 0 1.1.5 1.1 1.1V40c-.1.6-.6 1-1.2 1-.5 0-.9-.4-1-1v-4.2c0-.6.5-1 1.1-1zM49 43.2h4.2c.6.1 1 .6 1 1.2 0 .5-.4.9-1 1H49c-.6.1-1.1-.4-1.2-1-.1-.6.4-1.1 1-1.2h.2zM61.7 43.2h4.2c.6-.1 1.1.4 1.2 1s-.4 1.1-1 1.2h-4.4c-.6-.1-1-.6-1-1.2.1-.6.5-1 1-1z"></path><circle class="gm-icon-cryptoc-st6" cx="57.5" cy="44.3" r="1.1"></circle><path class="gm-icon-cryptoc-st7" d="M169.5 136.6v-4.2M169.5 123.9v-4.2M161.1 128.2h4.2M173.7 128.2h4.2"></path><circle class="gm-icon-cryptoc-st3" cx="169.5" cy="128.2" r="1.1"></circle><path class="gm-icon-cryptoc-st8" d="M83.3 19.1c.7 0 1.2-.5 1.2-1.2s-.5-1.2-1.2-1.2-1.2.5-1.2 1.2.6 1.2 1.2 1.2zM42.7 69.9v.1c0 .3.3.5.6.5s.5-.2.5-.5v-.2c0-.3-.3-.5-.6-.5-.3.1-.5.3-.5.6zM38.1 65.7c.2.1.3.1.4 0h.1c.2-.1.3-.4.2-.6-.1-.2-.4-.3-.6-.2-.2.1-.3.4-.2.6 0 .1 0 .1.1.2z"></path><path class="gm-icon-cryptoc-st5" d="M218.5 59.3c.9-.1 1.5-.8 1.5-1.7-.1-.8-.7-1.4-1.5-1.5-.9.1-1.5.8-1.5 1.7.1.8.8 1.5 1.5 1.5z"></path><path class="gm-icon-cryptoc-st8" d="M190.3 87.5l.1.1c.8.4 1.7.1 2.1-.6.3-.5.3-1 0-1.5v-.1c-.4-.8-1.4-1-2.2-.6s-1 1.4-.6 2.2c.2.1.4.3.6.5z"></path><path class="gm-icon-cryptoc-st3" d="M187.5 110.3c.2-.8.7-1.5 1.3-2 1.6-1.2 3.9-.9 5.2.7.6.8.9 1.8.7 2.7-.3 2-2.1 3.4-4.2 3.2s-3.4-2.1-3.2-4.2c.2-.1.2-.2.2-.4zm5.1 1.3v-.2c.1-.4-.1-.8-.3-1.2-.3-.3-.6-.6-1.1-.6-.4-.1-.8.1-1.2.3-.7.5-.8 1.5-.3 2.2.5.7 1.5.8 2.2.3.4-.1.6-.4.7-.8z"></path><circle class="gm-icon-cryptoc-st9" cx="44.7" cy="112.4" r="2.6"></circle><path class="gm-icon-cryptoc-st7" d="M200.1 52.6v-4.3M200 39.9v-4.2M191.6 44.1h4.2M204.3 44.1h4.2"></path><circle class="gm-icon-cryptoc-st4" cx="200.1" cy="44.1" r="1.1"></circle><path class="gm-icon-cryptoc-st6" d="M200.1 53.6c.6 0 1-.4 1.1-.9v-2.1H199v2c0 .6.5 1 1.1 1z"></path><ellipse class="gm-icon-cryptoc-st10" cx="121.2" cy="135.4" rx="17.6" ry="5.6"></ellipse><ellipse class="gm-icon-cryptoc-st10" cx="159.7" cy="132.9" rx="23.5" ry="9.6"></ellipse><path class="gm-icon-cryptoc-st1" d="M148.4 85h14.8c6.1 0 11 4.9 11.1 11v31.3c0 3.7-3 6.7-6.7 6.7H144c-3.7 0-6.7-3-6.7-6.7V96.2c-.1-6.2 4.9-11.2 11.1-11.2z"></path><path class="gm-icon-cryptoc-st1" d="M114.5 101.8h10.7c7.2 0 13.1 5.9 13.1 13.1v11.4c0 4.8-3.9 8.8-8.8 8.8h-19.6c-4.8 0-8.8-3.9-8.8-8.8v-11.2c.1-7.3 6-13.3 13.4-13.3z"></path><path d="M159.7 85.5h8.3c3.3 0 6 2.7 6 6V133c0 .9-.7 1.6-1.6 1.6h-17.2c-.9 0-1.6-.7-1.6-1.6V91.7c-.1-3.4 2.7-6.2 6.1-6.2z" fill="#f2f2f3"></path><path class="gm-icon-cryptoc-st12" d="M82.7 129.7c-9.9 0-19.8-2.7-19.8-7.9s10-8 19.8-8 19.8 2.7 19.8 8-9.9 7.9-19.8 7.9zm0-12.5c-10.2 0-16.4 3-16.4 4.6s6.2 4.6 16.4 4.6 16.4-3 16.4-4.6-6.2-4.6-16.4-4.6z"></path><path class="gm-icon-cryptoc-st12" d="M82.7 137.5c-9.9 0-19.8-2.7-19.8-7.9v-7.8c0-.9.8-1.7 1.7-1.7.9 0 1.7.8 1.7 1.7v7.8c0 1.6 6.2 4.6 16.4 4.6s16.4-3 16.4-4.6v-7.8c.1-.9.9-1.6 1.8-1.6.8.1 1.5.7 1.6 1.6v7.8c.1 5.2-9.9 7.9-19.8 7.9z"></path><path class="gm-icon-cryptoc-st12" d="M119.1 129.6c-9.8 0-19.8-2.7-19.8-8 .1-.9.9-1.6 1.8-1.6.8.1 1.5.7 1.6 1.6 0 1.6 6.2 4.6 16.4 4.6s16.4-3 16.4-4.6c0-.9.8-1.7 1.7-1.7.9 0 1.7.8 1.7 1.7 0 5.3-10 8-19.8 8z"></path><path class="gm-icon-cryptoc-st12" d="M119.1 137.5c-9.8 0-19.8-2.7-19.8-8v-7.8c.1-.9.9-1.6 1.8-1.6.8.1 1.5.7 1.6 1.6v7.8c0 1.6 6.2 4.6 16.4 4.6s16.4-3 16.4-4.6v-7.8c0-.9.8-1.7 1.7-1.7.9 0 1.7.8 1.7 1.7v7.8c0 5.2-10 8-19.8 8z"></path><path class="gm-icon-cryptoc-st12" d="M119.1 122c-9.8 0-19.8-2.7-19.8-8 .1-.9.9-1.6 1.8-1.6.8.1 1.5.7 1.6 1.6 0 1.6 6.2 4.6 16.4 4.5s16.4-3 16.4-4.6c0-.9.8-1.7 1.7-1.7.9 0 1.7.8 1.7 1.7 0 5.3-10 8.1-19.8 8.1z"></path><path class="gm-icon-cryptoc-st12" d="M119.1 129.9c-9.8 0-19.8-2.7-19.8-7.9v-7.8c.1-.9.9-1.6 1.8-1.6.8.1 1.5.7 1.6 1.6v7.8c0 1.6 6.2 4.6 16.4 4.5s16.4-3 16.4-4.6V114c0-.9.8-1.7 1.7-1.7.9 0 1.7.8 1.7 1.7v7.8c0 5.3-10 8-19.8 8.1z"></path><path class="gm-icon-cryptoc-st12" d="M119.1 114.4c-9.8 0-19.8-2.7-19.8-8s10-8 19.8-8 19.8 2.7 19.8 7.9-10 8-19.8 8.1zm0-12.6c-10.2 0-16.4 3-16.4 4.6s6.2 4.6 16.4 4.6 16.4-3 16.4-4.6-6.3-4.6-16.4-4.6z"></path><path class="gm-icon-cryptoc-st12" d="M119.1 122.2c-9.8 0-19.8-2.7-19.8-7.9v-7.8c.1-.9.9-1.6 1.8-1.6.8.1 1.5.7 1.6 1.6v7.8c0 1.6 6.2 4.6 16.4 4.6s16.4-3 16.4-4.6v-7.8c0-.9.8-1.7 1.7-1.7.9 0 1.7.8 1.7 1.7v7.8c0 5.1-10 7.9-19.8 7.9zM155.4 129.6c-9.9 0-19.8-2.7-19.8-7.9 0-.9.8-1.7 1.7-1.7.9 0 1.7.8 1.7 1.7 0 1.6 6.2 4.6 16.4 4.6s16.4-3 16.4-4.6c0-.9.8-1.7 1.7-1.7.9 0 1.7.8 1.7 1.7 0 5.1-9.9 7.9-19.8 7.9z"></path><path class="gm-icon-cryptoc-st12" d="M155.4 137.4c-9.9 0-19.8-2.7-19.8-7.9v-7.8c0-.9.8-1.7 1.7-1.7.9 0 1.7.8 1.7 1.7v7.8c0 1.6 6.2 4.6 16.4 4.6s16.4-3 16.4-4.6v-7.8c0-.9.8-1.7 1.7-1.7.9 0 1.7.8 1.7 1.7v7.8c.1 5.2-9.9 7.9-19.8 7.9z"></path><path class="gm-icon-cryptoc-st12" d="M155.4 122c-9.9 0-19.8-2.7-19.8-7.9 0-.9.8-1.7 1.7-1.7.9 0 1.7.8 1.7 1.7 0 1.6 6.2 4.6 16.4 4.5s16.4-3 16.4-4.6c0-.9.8-1.7 1.7-1.7.9 0 1.7.8 1.7 1.7 0 5.2-9.9 8-19.8 8z"></path><path class="gm-icon-cryptoc-st12" d="M155.4 129.8c-9.9 0-19.8-2.7-19.8-8V114c0-.9.8-1.7 1.7-1.7.9 0 1.7.8 1.7 1.7v7.8c0 1.6 6.2 4.6 16.4 4.5s16.4-3 16.4-4.6V114c0-.9.8-1.7 1.7-1.7.9 0 1.7.8 1.7 1.7v7.8c0 5.2-9.9 8-19.8 8z"></path><path class="gm-icon-cryptoc-st12" d="M155.4 114.3c-9.9 0-19.8-2.7-19.8-7.9 0-.9.8-1.7 1.7-1.7.9 0 1.7.8 1.7 1.7 0 1.6 6.2 4.6 16.4 4.6s16.4-3 16.4-4.6c0-.9.8-1.7 1.7-1.7.9 0 1.7.8 1.7 1.7 0 5.2-10 7.9-19.8 7.9z"></path><path class="gm-icon-cryptoc-st12" d="M155.4 122.2c-9.9 0-19.8-2.7-19.8-8v-7.8c0-.9.8-1.7 1.7-1.7.9 0 1.7.8 1.7 1.7v7.8c0 1.6 6.2 4.6 16.4 4.6s16.4-3 16.4-4.6v-7.8c0-.9.8-1.7 1.7-1.7.9 0 1.7.8 1.7 1.7v7.8c0 5.2-9.9 7.9-19.8 8z"></path><path class="gm-icon-cryptoc-st12" d="M155.4 106.6c-9.9 0-19.8-2.7-19.8-8 0-.9.8-1.7 1.7-1.7.9 0 1.7.8 1.7 1.7 0 1.6 6.2 4.6 16.4 4.5s16.4-3 16.4-4.6c.1-.9.9-1.6 1.8-1.6.8.1 1.5.7 1.6 1.6 0 5.3-10 8-19.8 8.1z"></path><path class="gm-icon-cryptoc-st12" d="M155.4 114.4c-9.9 0-19.8-2.7-19.8-8v-7.8c0-.9.8-1.7 1.7-1.7.9 0 1.7.8 1.7 1.7v7.8c0 1.6 6.2 4.6 16.4 4.6s16.4-3 16.4-4.6v-7.8c.1-.9.9-1.6 1.8-1.6.8.1 1.5.7 1.6 1.6v7.8c0 5.2-10 8-19.8 8z"></path><path class="gm-icon-cryptoc-st12" d="M155.4 98.9c-9.9 0-19.8-2.7-19.8-7.9 0-3.5 4.7-6.3 12.5-7.5 2.4-.3 4.9-.5 7.3-.5.9 0 1.7.8 1.7 1.7 0 .9-.8 1.7-1.7 1.7-2.3 0-4.6.2-6.8.5-6.8 1-9.6 3.2-9.6 4.1 0 1.6 6.2 4.6 16.4 4.6s16.4-3 16.4-4.6c0-.9-2.8-3.1-9.6-4.1-.9-.1-1.6-1-1.4-1.9.1-.9 1-1.6 1.9-1.4 7.9 1.1 12.5 3.9 12.5 7.4 0 5.2-10 7.9-19.8 7.9z"></path><path class="gm-icon-cryptoc-st12" d="M155.4 106.8c-9.9 0-19.8-2.7-19.8-7.9V91c0-.9.8-1.7 1.7-1.7.9 0 1.7.8 1.7 1.7v7.8c0 1.6 6.2 4.6 16.4 4.6s16.4-3 16.4-4.6V91c-.1-.9.6-1.8 1.6-1.8.9-.1 1.8.6 1.8 1.6v8.1c0 5.1-10 7.8-19.8 7.9z"></path><path class="gm-icon-cryptoc-st13" d="M158.4 89.8c-.9 0-1.7-.8-1.7-1.7l-.1-33.8c0-.9.8-1.7 1.7-1.7.9 0 1.7.8 1.7 1.7l.1 33.8c0 .9-.7 1.7-1.7 1.7zM146.4 78.8h-.1c-6.9-.2-13.7-12.9-14.4-14.4-.3-.5-.3-1.1 0-1.6s.8-.8 1.4-.8c1.6-.1 16.1-.6 19.7 5.3.9 1.4 1.5 3.9-.5 7.4-2 3.4-4.4 4.1-6.1 4.1zm-10.2-13.5c2.7 4.6 7 10 10.1 10.1.4 0 1.7 0 3.1-2.5 1.4-2.5.8-3.6.5-3.9-1.5-2.6-8.3-3.6-13.7-3.7z"></path><path class="gm-icon-cryptoc-st13" d="M158.4 79.8c-.3 0-.6-.1-.9-.2l-13-7.5c-.8-.5-1.1-1.5-.6-2.3.5-.8 1.5-1.1 2.3-.7l13 7.5c.8.5 1.1 1.5.6 2.3-.2.5-.8.8-1.4.9zM170.4 78.8c-1.7 0-4.1-.7-6-4.2-2-3.5-1.4-5.9-.5-7.4 3.6-5.9 18-5.4 19.7-5.4.6 0 1.1.3 1.4.8.3.5.3 1.1.1 1.6-.8 1.5-7.5 14.2-14.4 14.4l-.3.2zm-3.1-5.9c1.4 2.5 2.7 2.5 3.1 2.4 3.1-.1 7.4-5.5 10.1-10.1-5.4.1-12.2 1.1-13.8 3.8-.2.4-.8 1.5.6 3.9z"></path><path class="gm-icon-cryptoc-st13" d="M158.4 79.8c-.9 0-1.7-.8-1.7-1.7 0-.6.3-1.2.8-1.5l13-7.5c.8-.4 1.9-.1 2.3.7.4.8.1 1.7-.6 2.2l-13 7.5c-.2.2-.5.3-.8.3zM158.1 62.8c-4 0-5.9-1.7-6.7-3.2-3.4-6.2 4.5-18.8 5.4-20.3.3-.5.9-.8 1.4-.8.6 0 1.1.3 1.4.8.9 1.4 8.8 13.7 5.5 20-.8 1.5-2.7 3.4-6.8 3.5h-.2zm.3-3.5V61v-1.7c3-.1 3.7-1.3 3.9-1.7 1.5-2.9-1.2-9.5-3.9-14.2-2.7 4.8-5.4 11.6-3.9 14.4.1.4.8 1.6 3.9 1.5z"></path></svg>