<svg class="logo-business-insider-uk" xmlns="http://www.w3.org/2000/svg" viewBox="0 0 200 91.1"><path class="logo-business-insider-uk-st0" d="M64.7 56c2.2 1.8 4.9 2.8 7.8 2.8 2.8 0 4.8-1 4.8-3.1 0-1.9-1.3-2.6-3.5-3.4l-3.6-1.2c-3.3-1.2-5.8-2.9-5.8-6.9 0-4.2 3.8-6.5 8.3-6.5 2.8 0 5.3.7 7.3 1.9v4.2c-2.1-1.5-4.3-2.6-7.2-2.6-2.5 0-4.3.9-4.3 2.9 0 1.8 1.2 2.5 3.2 3.2l4 1.4c3.9 1.4 5.6 3.5 5.6 7 0 4.4-3.8 6.8-8.9 6.8-3.3 0-6.1-.9-7.8-2.1V56zM92.2 37.9h4.2v24h-4.2zM108.6 37.9h9.5c7.3 0 12 4.7 12 12s-4.7 12-12 12h-9.5v-24zm9.3 20.4c5.2 0 8-3.3 8-8.4 0-5.2-2.8-8.4-8-8.4h-5.1v16.8h5.1zM153.9 37.9v3.6h-10.8v5.8h9.7v3.6h-9.7v7.4h10.8V62H139V37.9zM170.6 52.2V62h-4.2V38h8.9c5.1 0 8.4 2.5 8.4 7.2 0 4-1.8 6.3-5.7 6.9l8.9 9.9h-4.8l-8.6-9.7h-2.9zm0-3.4h4.7c2.8 0 4.3-1.5 4.3-3.7s-1.6-3.7-4.3-3.7h-4.7v7.4zM183.2 22.8c1.7 1.2 4.6 2.1 7.9 2.1 5.1 0 8.9-2.4 8.9-6.9 0-3.5-1.8-5.6-5.7-7l-4-1.4c-2.1-.7-3.2-1.4-3.2-3.2 0-2 1.9-2.9 4.4-2.9 2.9 0 5.2 1.1 7.2 2.6V2c-2-1.3-4.5-2-7.3-2-4.6 0-8.4 2.3-8.4 6.6 0 4 2.5 5.7 5.8 6.9l3.6 1.3c2.2.8 3.5 1.6 3.5 3.5 0 2.2-2 3.2-4.8 3.2-2.9 0-5.6-1-7.9-2.8v4.1zm-25.4 0c1.7 1.2 4.6 2.1 7.9 2.1 5.1 0 8.9-2.4 8.9-6.9 0-3.5-1.8-5.6-5.7-7l-4-1.4c-2.1-.7-3.2-1.4-3.2-3.2 0-2 1.9-2.9 4.4-2.9 2.9 0 5.2 1.1 7.2 2.6V2c-2-1.3-4.5-2-7.3-2-4.6 0-8.4 2.3-8.4 6.6 0 4 2.5 5.7 5.8 6.9l3.6 1.3c2.2.8 3.5 1.6 3.5 3.5 0 2.2-2 3.2-4.8 3.2-2.9 0-5.6-1-7.9-2.8v4.1zM148 .4V4h-10.9v5.8h9.8v3.6h-9.8v7.5H148v3.7h-15V.4h15zm-47.4 24.2h4.1V8.8l17.1 16.1V.4h-4v15.5L100.6 0v24.6zM88.6.4h-4.2v24.2h4.2V.4zM56.8 22.9c1.7 1.2 4.6 2.1 7.9 2.1 5.1 0 8.9-2.4 8.9-6.9 0-3.5-1.8-5.6-5.7-7l-4-1.4c-2.1-.7-3.2-1.4-3.2-3.2 0-2 1.9-2.9 4.4-2.9 2.9 0 5.2 1.1 7.2 2.6V2c-2-1.3-4.5-2-7.3-2-4.6 0-8.4 2.3-8.4 6.6 0 4 2.5 5.7 5.8 6.9l3.6 1.3c2.2.8 3.5 1.6 3.5 3.5 0 2.2-2 3.1-4.8 3.1-2.9 0-5.6-1-7.9-2.8v4.3zM36.9 25c5.9 0 10-3.4 10-10V.4h-4.2v14.1c0 4.6-2 6.8-5.7 6.8s-5.7-2.2-5.7-6.8V.4H27v14.5c0 6.7 4 10.1 9.9 10.1M4.1 14h5.3c2.8 0 4.4 1.3 4.4 3.5S12.3 21 9.4 21H4.1v-7zm0-3.4V4h4.6c2.9 0 4.4 1 4.4 3.3s-1.5 3.3-4.4 3.3H4.1zm9.8 1.5c1.8-.6 3.2-2.5 3.2-5.1 0-4.3-3.2-6.6-8.4-6.6H0v24.2h9.5c5.2 0 8.4-2.4 8.4-6.9 0-2.6-1.7-4.8-4-5.6"></path><path class="logo-business-insider-uk-st1" d="M82 84.6v-9.3h2.6v9.1c0 3 1.3 4.4 3.6 4.4s3.6-1.4 3.6-4.4v-9.1h2.6v9.4c0 4.3-2.5 6.4-6.2 6.4S82 88.9 82 84.6M104.8 82.1l6.2-6.8h3.3l-7 7.4 7.2 8.1h-3.3l-6.4-7.1v7.1h-2.6V75.3h2.6z"></path><path class="logo-business-insider-uk-st0" d="M16.7 37.8h4.2v24h-4.2zM32.9 61.8h4V46.2l17 16V37.8h-4v15.4l-17-15.8z"></path></svg>